<svg xmlns="http://www.w3.org/2000/svg" viewBox="0 0 400 400" fill="none">
  <rect width="400" height="400" rx="12" fill="#E8E8E8"/>
  <!-- small pot 1 -->
  <path d="M80 310 C80 310 75 290 78 275 C81 260 90 252 95 245 L125 245 C130 252 139 260 142 275 C145 290 140 310 140 310 Z" fill="#B8B8B8"/>
  <rect x="92" y="242" width="36" height="6" rx="3" fill="#A8A8A8"/>
  <!-- medium pot 2 -->
  <path d="M170 310 C170 310 158 270 162 245 C166 220 178 205 185 190 L215 190 C222 205 234 220 238 245 C242 270 230 310 230 310 Z" fill="#B0B0B0"/>
  <rect x="182" y="187" width="36" height="6" rx="3" fill="#A0A0A0"/>
  <!-- tall pot 3 -->
  <path d="M265 310 C265 310 255 250 260 220 C265 190 278 170 285 150 L315 150 C322 170 335 190 340 220 C345 250 335 310 335 310 Z" fill="#B0B0B0"/>
  <rect x="277" y="147" width="36" height="6" rx="3" fill="#A0A0A0"/>
  <!-- shadow -->
  <ellipse cx="110" cy="316" rx="35" ry="6" fill="#D0D0D0"/>
  <ellipse cx="200" cy="316" rx="40" ry="6" fill="#D0D0D0"/>
  <ellipse cx="300" cy="316" rx="35" ry="6" fill="#D0D0D0"/>
  <!-- label -->
  <text x="200" y="370" text-anchor="middle" font-family="system-ui,sans-serif" font-size="14" fill="#999">RACCOLTA</text>
</svg>